<svg xmlns="http://www.w3.org/2000/svg" viewBox="0 0 128 128">
  <path fill="currentColor" d="M64 8.25c-25.172 0-45.582 7.113-45.582 16.5v78.5c0 9.387 20.41 16.5 45.582 16.5s45.582-7.113 45.582-16.5v-78.5c0-9.387-20.41-16.5-45.582-16.5Zm0 6.25c23.012 0 39.332 6.156 39.332 10.25S87.012 35 64 35 24.668 28.844 24.668 24.75 40.988 14.5 64 14.5Zm0 81c-23.012 0-39.332-6.156-39.332-10.25v14.5c0 4.094 16.32 10.25 39.332 10.25s39.332-6.156 39.332-10.25v-14.5c0 4.094-16.32 10.25-39.332 10.25Zm0-24c-23.012 0-39.332-6.156-39.332-10.25v14.5c0 4.094 16.32 10.25 39.332 10.25s39.332-6.156 39.332-10.25v-14.5c0 4.094-16.32 10.25-39.332 10.25Z"/>
</svg>
